{
	"asset": 
	{
		"version": "2.0",
		"generator": "Unreal Engine 4 glTF Exporter"
	},
	"scene": 0,
	"accessors": [
		{
			"bufferView": 0,
			"count": 56865,
			"type": "SCALAR",
			"componentType": 5123
		},
		{
			"bufferView": 1,
			"count": 12077,
			"type": "VEC3",
			"componentType": 5126,
			"min": [ -0.557463825,
				-2.55369983e-08,
				-0.29529658
			],
			"max": [ 0.557463825,
				2.00236201,
				0.317645371
			]
		},
		{
			"bufferView": 2,
			"count": 12077,
			"type": "VEC3",
			"componentType": 5126
		},
		{
			"bufferView": 3,
			"count": 12077,
			"type": "VEC4",
			"componentType": 5126
		},
		{
			"bufferView": 4,
			"count": 12077,
			"type": "VEC2",
			"componentType": 5126
		},
		{
			"bufferView": 5,
			"count": 12077,
			"type": "VEC2",
			"componentType": 5126
		}
	],
	"buffers": [
		{
			"uri": "EVCharger_RTMEVChargerEXP.bin",
			"byteLength": 790044
		}
	],
	"bufferViews": [
		{
			"buffer": 0,
			"byteLength": 113730,
			"target": 34963
		},
		{
			"buffer": 0,
			"byteLength": 144924,
			"byteOffset": 113732,
			"target": 34962
		},
		{
			"buffer": 0,
			"byteLength": 144924,
			"byteOffset": 258656,
			"target": 34962
		},
		{
			"buffer": 0,
			"byteLength": 193232,
			"byteOffset": 403580,
			"target": 34962
		},
		{
			"buffer": 0,
			"byteLength": 96616,
			"byteOffset": 596812,
			"target": 34962
		},
		{
			"buffer": 0,
			"byteLength": 96616,
			"byteOffset": 693428,
			"target": 34962
		}
	],
	"images": [
		{
			"uri": "EV1.png"
		},
		{
			"uri": "EVCharger_EVChargerMain_Normal.png"
		}
	],
	"materials": [
		{
			"name": "EV_1",
			"pbrMetallicRoughness": 
			{
				"baseColorFactor": 
				[ 0,
					0,
					0,
					1
				],
				"metallicFactor": 0,
				"roughnessFactor": 0.5
			},
			"normalTexture": 
			{
				"index": 1
			},
			"emissiveTexture": 
			{
				"index": 0
			},
			"emissiveFactor": 
			[ 1,
				1,
				1
			]
		}
	],
	"meshes": [
		{
			"name": "EVCharger_RTMEVChargerEXP",
			"primitives": [
				{
					"attributes": 
					{
						"POSITION": 1,
						"NORMAL": 2,
						"TANGENT": 3,
						"TEXCOORD_0": 4,
						"TEXCOORD_1": 5
					},
					"indices": 0,
					"material": 0
				}
			]
		}
	],
	"nodes": [
		{
			"mesh": 0
		}
	],
	"samplers": [
		{
			"name": "EV1",
			"minFilter": 9987,
			"magFilter": 9729
		},
		{
			"name": "EVCharger_EVChargerMain_Normal",
			"minFilter": 9987,
			"magFilter": 9729
		}
	],
	"scenes": [
		{
			"nodes": [ 0 ]
		}
	],
	"textures": [
		{
			"name": "EV1",
			"sampler": 0,
			"source": 0
		},
		{
			"name": "EVCharger_EVChargerMain_Normal",
			"sampler": 1,
			"source": 1
		}
	]
}